<svg xmlns="http://www.w3.org/2000/svg" viewBox="0 0 64 64" role="img" aria-label="Planning Poker">
  <!-- Poker chip -->
  <circle cx="32" cy="32" r="30" fill="#3A63F5"/>
  <circle cx="32" cy="32" r="30" fill="none" stroke="#1E3FB8" stroke-width="2"/>

  <!-- Rim notches -->
  <g fill="#FFFFFF">
    <g transform="rotate(0 32 32)"><rect x="29" y="2.5" width="6" height="8" rx="2"/></g>
    <g transform="rotate(45 32 32)"><rect x="29" y="2.5" width="6" height="8" rx="2"/></g>
    <g transform="rotate(90 32 32)"><rect x="29" y="2.5" width="6" height="8" rx="2"/></g>
    <g transform="rotate(135 32 32)"><rect x="29" y="2.5" width="6" height="8" rx="2"/></g>
    <g transform="rotate(180 32 32)"><rect x="29" y="2.5" width="6" height="8" rx="2"/></g>
    <g transform="rotate(225 32 32)"><rect x="29" y="2.5" width="6" height="8" rx="2"/></g>
    <g transform="rotate(270 32 32)"><rect x="29" y="2.5" width="6" height="8" rx="2"/></g>
    <g transform="rotate(315 32 32)"><rect x="29" y="2.5" width="6" height="8" rx="2"/></g>
  </g>

  <!-- Inner face -->
  <circle cx="32" cy="32" r="19" fill="#FFFFFF"/>
  <circle cx="32" cy="32" r="19" fill="none" stroke="#F2A93B" stroke-width="2.5"/>

  <!-- Spade -->
  <path d="M32 18 C32 18 21 27 21 34 C21 38.4 24.4 41 27.5 41 C29.2 41 30.6 40.2 31 39.2 C30.6 42.5 29.4 44.5 27.5 46 L36.5 46 C34.6 44.5 33.4 42.5 33 39.2 C33.4 40.2 34.8 41 36.5 41 C39.6 41 43 38.4 43 34 C43 27 32 18 32 18 Z" fill="#16308C"/>
</svg>
